<svg xmlns="http://www.w3.org/2000/svg" width="1148" height="228" viewBox="0 0 1148 228" font-family="Inter,Segoe UI,Helvetica,Arial,sans-serif">
<rect width="100%" height="100%" rx="14" fill="#0b1020"/>
<text x="20" y="26" fill="#e5e7eb" font-size="15" font-weight="700">Protect the recurrent path</text>
<text x="20" y="45" fill="#94a3b8" font-size="11">V3: every Gated DeltaNet projection at FP8; better long-context fidelity, slower decode</text>
<text x="108" y="71" fill="#94a3b8" font-size="11" text-anchor="end">GDN q·k·v</text>
<rect x="118" y="58" width="13" height="18" rx="2" fill="#f59e0b"/>
<rect x="133" y="58" width="13" height="18" rx="2" fill="#f59e0b"/>
<rect x="148" y="58" width="13" height="18" rx="2" fill="#f59e0b"/>
<rect x="163" y="58" width="13" height="18" rx="2" fill="#1e293b" opacity="0.45"/>
<rect x="178" y="58" width="13" height="18" rx="2" fill="#f59e0b"/>
<rect x="193" y="58" width="13" height="18" rx="2" fill="#f59e0b"/>
<rect x="208" y="58" width="13" height="18" rx="2" fill="#f59e0b"/>
<rect x="223" y="58" width="13" height="18" rx="2" fill="#1e293b" opacity="0.45"/>
<rect x="238" y="58" width="13" height="18" rx="2" fill="#f59e0b"/>
<rect x="253" y="58" width="13" height="18" rx="2" fill="#f59e0b"/>
<rect x="268" y="58" width="13" height="18" rx="2" fill="#f59e0b"/>
<rect x="283" y="58" width="13" height="18" rx="2" fill="#1e293b" opacity="0.45"/>
<rect x="298" y="58" width="13" height="18" rx="2" fill="#f59e0b"/>
<rect x="313" y="58" width="13" height="18" rx="2" fill="#f59e0b"/>
<rect x="328" y="58" width="13" height="18" rx="2" fill="#f59e0b"/>
<rect x="343" y="58" width="13" height="18" rx="2" fill="#1e293b" opacity="0.45"/>
<rect x="358" y="58" width="13" height="18" rx="2" fill="#f59e0b"/>
<rect x="373" y="58" width="13" height="18" rx="2" fill="#f59e0b"/>
<rect x="388" y="58" width="13" height="18" rx="2" fill="#f59e0b"/>
<rect x="403" y="58" width="13" height="18" rx="2" fill="#1e293b" opacity="0.45"/>
<rect x="418" y="58" width="13" height="18" rx="2" fill="#f59e0b"/>
<rect x="433" y="58" width="13" height="18" rx="2" fill="#f59e0b"/>
<rect x="448" y="58" width="13" height="18" rx="2" fill="#f59e0b"/>
<rect x="463" y="58" width="13" height="18" rx="2" fill="#1e293b" opacity="0.45"/>
<rect x="478" y="58" width="13" height="18" rx="2" fill="#f59e0b"/>
<rect x="493" y="58" width="13" height="18" rx="2" fill="#f59e0b"/>
<rect x="508" y="58" width="13" height="18" rx="2" fill="#f59e0b"/>
<rect x="523" y="58" width="13" height="18" rx="2" fill="#1e293b" opacity="0.45"/>
<rect x="538" y="58" width="13" height="18" rx="2" fill="#f59e0b"/>
<rect x="553" y="58" width="13" height="18" rx="2" fill="#f59e0b"/>
<rect x="568" y="58" width="13" height="18" rx="2" fill="#f59e0b"/>
<rect x="583" y="58" width="13" height="18" rx="2" fill="#1e293b" opacity="0.45"/>
<rect x="598" y="58" width="13" height="18" rx="2" fill="#f59e0b"/>
<rect x="613" y="58" width="13" height="18" rx="2" fill="#f59e0b"/>
<rect x="628" y="58" width="13" height="18" rx="2" fill="#f59e0b"/>
<rect x="643" y="58" width="13" height="18" rx="2" fill="#1e293b" opacity="0.45"/>
<rect x="658" y="58" width="13" height="18" rx="2" fill="#f59e0b"/>
<rect x="673" y="58" width="13" height="18" rx="2" fill="#f59e0b"/>
<rect x="688" y="58" width="13" height="18" rx="2" fill="#f59e0b"/>
<rect x="703" y="58" width="13" height="18" rx="2" fill="#1e293b" opacity="0.45"/>
<rect x="718" y="58" width="13" height="18" rx="2" fill="#f59e0b"/>
<rect x="733" y="58" width="13" height="18" rx="2" fill="#f59e0b"/>
<rect x="748" y="58" width="13" height="18" rx="2" fill="#f59e0b"/>
<rect x="763" y="58" width="13" height="18" rx="2" fill="#1e293b" opacity="0.45"/>
<rect x="778" y="58" width="13" height="18" rx="2" fill="#f59e0b"/>
<rect x="793" y="58" width="13" height="18" rx="2" fill="#f59e0b"/>
<rect x="808" y="58" width="13" height="18" rx="2" fill="#f59e0b"/>
<rect x="823" y="58" width="13" height="18" rx="2" fill="#1e293b" opacity="0.45"/>
<rect x="838" y="58" width="13" height="18" rx="2" fill="#f59e0b"/>
<rect x="853" y="58" width="13" height="18" rx="2" fill="#f59e0b"/>
<rect x="868" y="58" width="13" height="18" rx="2" fill="#f59e0b"/>
<rect x="883" y="58" width="13" height="18" rx="2" fill="#1e293b" opacity="0.45"/>
<rect x="898" y="58" width="13" height="18" rx="2" fill="#f59e0b"/>
<rect x="913" y="58" width="13" height="18" rx="2" fill="#f59e0b"/>
<rect x="928" y="58" width="13" height="18" rx="2" fill="#f59e0b"/>
<rect x="943" y="58" width="13" height="18" rx="2" fill="#1e293b" opacity="0.45"/>
<rect x="958" y="58" width="13" height="18" rx="2" fill="#f59e0b"/>
<rect x="973" y="58" width="13" height="18" rx="2" fill="#f59e0b"/>
<rect x="988" y="58" width="13" height="18" rx="2" fill="#f59e0b"/>
<rect x="1003" y="58" width="13" height="18" rx="2" fill="#1e293b" opacity="0.45"/>
<rect x="1018" y="58" width="13" height="18" rx="2" fill="#f59e0b"/>
<rect x="1033" y="58" width="13" height="18" rx="2" fill="#f59e0b"/>
<rect x="1048" y="58" width="13" height="18" rx="2" fill="#f59e0b"/>
<rect x="1063" y="58" width="13" height="18" rx="2" fill="#1e293b" opacity="0.45"/>
<text x="108" y="91" fill="#94a3b8" font-size="11" text-anchor="end">GDN gate z</text>
<rect x="118" y="78" width="13" height="18" rx="2" fill="#f59e0b"/>
<rect x="133" y="78" width="13" height="18" rx="2" fill="#f59e0b"/>
<rect x="148" y="78" width="13" height="18" rx="2" fill="#f59e0b"/>
<rect x="163" y="78" width="13" height="18" rx="2" fill="#1e293b" opacity="0.45"/>
<rect x="178" y="78" width="13" height="18" rx="2" fill="#f59e0b"/>
<rect x="193" y="78" width="13" height="18" rx="2" fill="#f59e0b"/>
<rect x="208" y="78" width="13" height="18" rx="2" fill="#f59e0b"/>
<rect x="223" y="78" width="13" height="18" rx="2" fill="#1e293b" opacity="0.45"/>
<rect x="238" y="78" width="13" height="18" rx="2" fill="#f59e0b"/>
<rect x="253" y="78" width="13" height="18" rx="2" fill="#f59e0b"/>
<rect x="268" y="78" width="13" height="18" rx="2" fill="#f59e0b"/>
<rect x="283" y="78" width="13" height="18" rx="2" fill="#1e293b" opacity="0.45"/>
<rect x="298" y="78" width="13" height="18" rx="2" fill="#f59e0b"/>
<rect x="313" y="78" width="13" height="18" rx="2" fill="#f59e0b"/>
<rect x="328" y="78" width="13" height="18" rx="2" fill="#f59e0b"/>
<rect x="343" y="78" width="13" height="18" rx="2" fill="#1e293b" opacity="0.45"/>
<rect x="358" y="78" width="13" height="18" rx="2" fill="#f59e0b"/>
<rect x="373" y="78" width="13" height="18" rx="2" fill="#f59e0b"/>
<rect x="388" y="78" width="13" height="18" rx="2" fill="#f59e0b"/>
<rect x="403" y="78" width="13" height="18" rx="2" fill="#1e293b" opacity="0.45"/>
<rect x="418" y="78" width="13" height="18" rx="2" fill="#f59e0b"/>
<rect x="433" y="78" width="13" height="18" rx="2" fill="#f59e0b"/>
<rect x="448" y="78" width="13" height="18" rx="2" fill="#f59e0b"/>
<rect x="463" y="78" width="13" height="18" rx="2" fill="#1e293b" opacity="0.45"/>
<rect x="478" y="78" width="13" height="18" rx="2" fill="#f59e0b"/>
<rect x="493" y="78" width="13" height="18" rx="2" fill="#f59e0b"/>
<rect x="508" y="78" width="13" height="18" rx="2" fill="#f59e0b"/>
<rect x="523" y="78" width="13" height="18" rx="2" fill="#1e293b" opacity="0.45"/>
<rect x="538" y="78" width="13" height="18" rx="2" fill="#f59e0b"/>
<rect x="553" y="78" width="13" height="18" rx="2" fill="#f59e0b"/>
<rect x="568" y="78" width="13" height="18" rx="2" fill="#f59e0b"/>
<rect x="583" y="78" width="13" height="18" rx="2" fill="#1e293b" opacity="0.45"/>
<rect x="598" y="78" width="13" height="18" rx="2" fill="#f59e0b"/>
<rect x="613" y="78" width="13" height="18" rx="2" fill="#f59e0b"/>
<rect x="628" y="78" width="13" height="18" rx="2" fill="#f59e0b"/>
<rect x="643" y="78" width="13" height="18" rx="2" fill="#1e293b" opacity="0.45"/>
<rect x="658" y="78" width="13" height="18" rx="2" fill="#f59e0b"/>
<rect x="673" y="78" width="13" height="18" rx="2" fill="#f59e0b"/>
<rect x="688" y="78" width="13" height="18" rx="2" fill="#f59e0b"/>
<rect x="703" y="78" width="13" height="18" rx="2" fill="#1e293b" opacity="0.45"/>
<rect x="718" y="78" width="13" height="18" rx="2" fill="#f59e0b"/>
<rect x="733" y="78" width="13" height="18" rx="2" fill="#f59e0b"/>
<rect x="748" y="78" width="13" height="18" rx="2" fill="#f59e0b"/>
<rect x="763" y="78" width="13" height="18" rx="2" fill="#1e293b" opacity="0.45"/>
<rect x="778" y="78" width="13" height="18" rx="2" fill="#f59e0b"/>
<rect x="793" y="78" width="13" height="18" rx="2" fill="#f59e0b"/>
<rect x="808" y="78" width="13" height="18" rx="2" fill="#f59e0b"/>
<rect x="823" y="78" width="13" height="18" rx="2" fill="#1e293b" opacity="0.45"/>
<rect x="838" y="78" width="13" height="18" rx="2" fill="#f59e0b"/>
<rect x="853" y="78" width="13" height="18" rx="2" fill="#f59e0b"/>
<rect x="868" y="78" width="13" height="18" rx="2" fill="#f59e0b"/>
<rect x="883" y="78" width="13" height="18" rx="2" fill="#1e293b" opacity="0.45"/>
<rect x="898" y="78" width="13" height="18" rx="2" fill="#f59e0b"/>
<rect x="913" y="78" width="13" height="18" rx="2" fill="#f59e0b"/>
<rect x="928" y="78" width="13" height="18" rx="2" fill="#f59e0b"/>
<rect x="943" y="78" width="13" height="18" rx="2" fill="#1e293b" opacity="0.45"/>
<rect x="958" y="78" width="13" height="18" rx="2" fill="#f59e0b"/>
<rect x="973" y="78" width="13" height="18" rx="2" fill="#f59e0b"/>
<rect x="988" y="78" width="13" height="18" rx="2" fill="#f59e0b"/>
<rect x="1003" y="78" width="13" height="18" rx="2" fill="#1e293b" opacity="0.45"/>
<rect x="1018" y="78" width="13" height="18" rx="2" fill="#f59e0b"/>
<rect x="1033" y="78" width="13" height="18" rx="2" fill="#f59e0b"/>
<rect x="1048" y="78" width="13" height="18" rx="2" fill="#f59e0b"/>
<rect x="1063" y="78" width="13" height="18" rx="2" fill="#1e293b" opacity="0.45"/>
<text x="108" y="111" fill="#94a3b8" font-size="11" text-anchor="end">GDN out</text>
<rect x="118" y="98" width="13" height="18" rx="2" fill="#f59e0b"/>
<rect x="133" y="98" width="13" height="18" rx="2" fill="#f59e0b"/>
<rect x="148" y="98" width="13" height="18" rx="2" fill="#f59e0b"/>
<rect x="163" y="98" width="13" height="18" rx="2" fill="#1e293b" opacity="0.45"/>
<rect x="178" y="98" width="13" height="18" rx="2" fill="#f59e0b"/>
<rect x="193" y="98" width="13" height="18" rx="2" fill="#f59e0b"/>
<rect x="208" y="98" width="13" height="18" rx="2" fill="#f59e0b"/>
<rect x="223" y="98" width="13" height="18" rx="2" fill="#1e293b" opacity="0.45"/>
<rect x="238" y="98" width="13" height="18" rx="2" fill="#f59e0b"/>
<rect x="253" y="98" width="13" height="18" rx="2" fill="#f59e0b"/>
<rect x="268" y="98" width="13" height="18" rx="2" fill="#f59e0b"/>
<rect x="283" y="98" width="13" height="18" rx="2" fill="#1e293b" opacity="0.45"/>
<rect x="298" y="98" width="13" height="18" rx="2" fill="#f59e0b"/>
<rect x="313" y="98" width="13" height="18" rx="2" fill="#f59e0b"/>
<rect x="328" y="98" width="13" height="18" rx="2" fill="#f59e0b"/>
<rect x="343" y="98" width="13" height="18" rx="2" fill="#1e293b" opacity="0.45"/>
<rect x="358" y="98" width="13" height="18" rx="2" fill="#f59e0b"/>
<rect x="373" y="98" width="13" height="18" rx="2" fill="#f59e0b"/>
<rect x="388" y="98" width="13" height="18" rx="2" fill="#f59e0b"/>
<rect x="403" y="98" width="13" height="18" rx="2" fill="#1e293b" opacity="0.45"/>
<rect x="418" y="98" width="13" height="18" rx="2" fill="#f59e0b"/>
<rect x="433" y="98" width="13" height="18" rx="2" fill="#f59e0b"/>
<rect x="448" y="98" width="13" height="18" rx="2" fill="#f59e0b"/>
<rect x="463" y="98" width="13" height="18" rx="2" fill="#1e293b" opacity="0.45"/>
<rect x="478" y="98" width="13" height="18" rx="2" fill="#f59e0b"/>
<rect x="493" y="98" width="13" height="18" rx="2" fill="#f59e0b"/>
<rect x="508" y="98" width="13" height="18" rx="2" fill="#f59e0b"/>
<rect x="523" y="98" width="13" height="18" rx="2" fill="#1e293b" opacity="0.45"/>
<rect x="538" y="98" width="13" height="18" rx="2" fill="#f59e0b"/>
<rect x="553" y="98" width="13" height="18" rx="2" fill="#f59e0b"/>
<rect x="568" y="98" width="13" height="18" rx="2" fill="#f59e0b"/>
<rect x="583" y="98" width="13" height="18" rx="2" fill="#1e293b" opacity="0.45"/>
<rect x="598" y="98" width="13" height="18" rx="2" fill="#f59e0b"/>
<rect x="613" y="98" width="13" height="18" rx="2" fill="#f59e0b"/>
<rect x="628" y="98" width="13" height="18" rx="2" fill="#f59e0b"/>
<rect x="643" y="98" width="13" height="18" rx="2" fill="#1e293b" opacity="0.45"/>
<rect x="658" y="98" width="13" height="18" rx="2" fill="#f59e0b"/>
<rect x="673" y="98" width="13" height="18" rx="2" fill="#f59e0b"/>
<rect x="688" y="98" width="13" height="18" rx="2" fill="#f59e0b"/>
<rect x="703" y="98" width="13" height="18" rx="2" fill="#1e293b" opacity="0.45"/>
<rect x="718" y="98" width="13" height="18" rx="2" fill="#f59e0b"/>
<rect x="733" y="98" width="13" height="18" rx="2" fill="#f59e0b"/>
<rect x="748" y="98" width="13" height="18" rx="2" fill="#f59e0b"/>
<rect x="763" y="98" width="13" height="18" rx="2" fill="#1e293b" opacity="0.45"/>
<rect x="778" y="98" width="13" height="18" rx="2" fill="#f59e0b"/>
<rect x="793" y="98" width="13" height="18" rx="2" fill="#f59e0b"/>
<rect x="808" y="98" width="13" height="18" rx="2" fill="#f59e0b"/>
<rect x="823" y="98" width="13" height="18" rx="2" fill="#1e293b" opacity="0.45"/>
<rect x="838" y="98" width="13" height="18" rx="2" fill="#f59e0b"/>
<rect x="853" y="98" width="13" height="18" rx="2" fill="#f59e0b"/>
<rect x="868" y="98" width="13" height="18" rx="2" fill="#f59e0b"/>
<rect x="883" y="98" width="13" height="18" rx="2" fill="#1e293b" opacity="0.45"/>
<rect x="898" y="98" width="13" height="18" rx="2" fill="#f59e0b"/>
<rect x="913" y="98" width="13" height="18" rx="2" fill="#f59e0b"/>
<rect x="928" y="98" width="13" height="18" rx="2" fill="#f59e0b"/>
<rect x="943" y="98" width="13" height="18" rx="2" fill="#1e293b" opacity="0.45"/>
<rect x="958" y="98" width="13" height="18" rx="2" fill="#f59e0b"/>
<rect x="973" y="98" width="13" height="18" rx="2" fill="#f59e0b"/>
<rect x="988" y="98" width="13" height="18" rx="2" fill="#f59e0b"/>
<rect x="1003" y="98" width="13" height="18" rx="2" fill="#1e293b" opacity="0.45"/>
<rect x="1018" y="98" width="13" height="18" rx="2" fill="#f59e0b"/>
<rect x="1033" y="98" width="13" height="18" rx="2" fill="#f59e0b"/>
<rect x="1048" y="98" width="13" height="18" rx="2" fill="#f59e0b"/>
<rect x="1063" y="98" width="13" height="18" rx="2" fill="#1e293b" opacity="0.45"/>
<text x="108" y="131" fill="#94a3b8" font-size="11" text-anchor="end">attention</text>
<rect x="118" y="118" width="13" height="18" rx="2" fill="#1e293b" opacity="0.45"/>
<rect x="133" y="118" width="13" height="18" rx="2" fill="#1e293b" opacity="0.45"/>
<rect x="148" y="118" width="13" height="18" rx="2" fill="#1e293b" opacity="0.45"/>
<rect x="163" y="118" width="13" height="18" rx="2" fill="#3b82f6"/>
<rect x="178" y="118" width="13" height="18" rx="2" fill="#1e293b" opacity="0.45"/>
<rect x="193" y="118" width="13" height="18" rx="2" fill="#1e293b" opacity="0.45"/>
<rect x="208" y="118" width="13" height="18" rx="2" fill="#1e293b" opacity="0.45"/>
<rect x="223" y="118" width="13" height="18" rx="2" fill="#3b82f6"/>
<rect x="238" y="118" width="13" height="18" rx="2" fill="#1e293b" opacity="0.45"/>
<rect x="253" y="118" width="13" height="18" rx="2" fill="#1e293b" opacity="0.45"/>
<rect x="268" y="118" width="13" height="18" rx="2" fill="#1e293b" opacity="0.45"/>
<rect x="283" y="118" width="13" height="18" rx="2" fill="#3b82f6"/>
<rect x="298" y="118" width="13" height="18" rx="2" fill="#1e293b" opacity="0.45"/>
<rect x="313" y="118" width="13" height="18" rx="2" fill="#1e293b" opacity="0.45"/>
<rect x="328" y="118" width="13" height="18" rx="2" fill="#1e293b" opacity="0.45"/>
<rect x="343" y="118" width="13" height="18" rx="2" fill="#3b82f6"/>
<rect x="358" y="118" width="13" height="18" rx="2" fill="#1e293b" opacity="0.45"/>
<rect x="373" y="118" width="13" height="18" rx="2" fill="#1e293b" opacity="0.45"/>
<rect x="388" y="118" width="13" height="18" rx="2" fill="#1e293b" opacity="0.45"/>
<rect x="403" y="118" width="13" height="18" rx="2" fill="#3b82f6"/>
<rect x="418" y="118" width="13" height="18" rx="2" fill="#1e293b" opacity="0.45"/>
<rect x="433" y="118" width="13" height="18" rx="2" fill="#1e293b" opacity="0.45"/>
<rect x="448" y="118" width="13" height="18" rx="2" fill="#1e293b" opacity="0.45"/>
<rect x="463" y="118" width="13" height="18" rx="2" fill="#3b82f6"/>
<rect x="478" y="118" width="13" height="18" rx="2" fill="#1e293b" opacity="0.45"/>
<rect x="493" y="118" width="13" height="18" rx="2" fill="#1e293b" opacity="0.45"/>
<rect x="508" y="118" width="13" height="18" rx="2" fill="#1e293b" opacity="0.45"/>
<rect x="523" y="118" width="13" height="18" rx="2" fill="#3b82f6"/>
<rect x="538" y="118" width="13" height="18" rx="2" fill="#1e293b" opacity="0.45"/>
<rect x="553" y="118" width="13" height="18" rx="2" fill="#1e293b" opacity="0.45"/>
<rect x="568" y="118" width="13" height="18" rx="2" fill="#1e293b" opacity="0.45"/>
<rect x="583" y="118" width="13" height="18" rx="2" fill="#3b82f6"/>
<rect x="598" y="118" width="13" height="18" rx="2" fill="#1e293b" opacity="0.45"/>
<rect x="613" y="118" width="13" height="18" rx="2" fill="#1e293b" opacity="0.45"/>
<rect x="628" y="118" width="13" height="18" rx="2" fill="#1e293b" opacity="0.45"/>
<rect x="643" y="118" width="13" height="18" rx="2" fill="#3b82f6"/>
<rect x="658" y="118" width="13" height="18" rx="2" fill="#1e293b" opacity="0.45"/>
<rect x="673" y="118" width="13" height="18" rx="2" fill="#1e293b" opacity="0.45"/>
<rect x="688" y="118" width="13" height="18" rx="2" fill="#1e293b" opacity="0.45"/>
<rect x="703" y="118" width="13" height="18" rx="2" fill="#3b82f6"/>
<rect x="718" y="118" width="13" height="18" rx="2" fill="#1e293b" opacity="0.45"/>
<rect x="733" y="118" width="13" height="18" rx="2" fill="#1e293b" opacity="0.45"/>
<rect x="748" y="118" width="13" height="18" rx="2" fill="#1e293b" opacity="0.45"/>
<rect x="763" y="118" width="13" height="18" rx="2" fill="#3b82f6"/>
<rect x="778" y="118" width="13" height="18" rx="2" fill="#1e293b" opacity="0.45"/>
<rect x="793" y="118" width="13" height="18" rx="2" fill="#1e293b" opacity="0.45"/>
<rect x="808" y="118" width="13" height="18" rx="2" fill="#1e293b" opacity="0.45"/>
<rect x="823" y="118" width="13" height="18" rx="2" fill="#3b82f6"/>
<rect x="838" y="118" width="13" height="18" rx="2" fill="#1e293b" opacity="0.45"/>
<rect x="853" y="118" width="13" height="18" rx="2" fill="#1e293b" opacity="0.45"/>
<rect x="868" y="118" width="13" height="18" rx="2" fill="#1e293b" opacity="0.45"/>
<rect x="883" y="118" width="13" height="18" rx="2" fill="#3b82f6"/>
<rect x="898" y="118" width="13" height="18" rx="2" fill="#1e293b" opacity="0.45"/>
<rect x="913" y="118" width="13" height="18" rx="2" fill="#1e293b" opacity="0.45"/>
<rect x="928" y="118" width="13" height="18" rx="2" fill="#1e293b" opacity="0.45"/>
<rect x="943" y="118" width="13" height="18" rx="2" fill="#3b82f6"/>
<rect x="958" y="118" width="13" height="18" rx="2" fill="#1e293b" opacity="0.45"/>
<rect x="973" y="118" width="13" height="18" rx="2" fill="#1e293b" opacity="0.45"/>
<rect x="988" y="118" width="13" height="18" rx="2" fill="#1e293b" opacity="0.45"/>
<rect x="1003" y="118" width="13" height="18" rx="2" fill="#3b82f6"/>
<rect x="1018" y="118" width="13" height="18" rx="2" fill="#1e293b" opacity="0.45"/>
<rect x="1033" y="118" width="13" height="18" rx="2" fill="#1e293b" opacity="0.45"/>
<rect x="1048" y="118" width="13" height="18" rx="2" fill="#1e293b" opacity="0.45"/>
<rect x="1063" y="118" width="13" height="18" rx="2" fill="#3b82f6"/>
<text x="108" y="151" fill="#94a3b8" font-size="11" text-anchor="end">MLP</text>
<rect x="118" y="138" width="13" height="18" rx="2" fill="#3b82f6"/>
<rect x="133" y="138" width="13" height="18" rx="2" fill="#3b82f6"/>
<rect x="148" y="138" width="13" height="18" rx="2" fill="#3b82f6"/>
<rect x="163" y="138" width="13" height="18" rx="2" fill="#3b82f6"/>
<rect x="178" y="138" width="13" height="18" rx="2" fill="#3b82f6"/>
<rect x="193" y="138" width="13" height="18" rx="2" fill="#3b82f6"/>
<rect x="208" y="138" width="13" height="18" rx="2" fill="#3b82f6"/>
<rect x="223" y="138" width="13" height="18" rx="2" fill="#3b82f6"/>
<rect x="238" y="138" width="13" height="18" rx="2" fill="#3b82f6"/>
<rect x="253" y="138" width="13" height="18" rx="2" fill="#3b82f6"/>
<rect x="268" y="138" width="13" height="18" rx="2" fill="#3b82f6"/>
<rect x="283" y="138" width="13" height="18" rx="2" fill="#3b82f6"/>
<rect x="298" y="138" width="13" height="18" rx="2" fill="#3b82f6"/>
<rect x="313" y="138" width="13" height="18" rx="2" fill="#3b82f6"/>
<rect x="328" y="138" width="13" height="18" rx="2" fill="#3b82f6"/>
<rect x="343" y="138" width="13" height="18" rx="2" fill="#3b82f6"/>
<rect x="358" y="138" width="13" height="18" rx="2" fill="#3b82f6"/>
<rect x="373" y="138" width="13" height="18" rx="2" fill="#3b82f6"/>
<rect x="388" y="138" width="13" height="18" rx="2" fill="#3b82f6"/>
<rect x="403" y="138" width="13" height="18" rx="2" fill="#3b82f6"/>
<rect x="418" y="138" width="13" height="18" rx="2" fill="#3b82f6"/>
<rect x="433" y="138" width="13" height="18" rx="2" fill="#3b82f6"/>
<rect x="448" y="138" width="13" height="18" rx="2" fill="#3b82f6"/>
<rect x="463" y="138" width="13" height="18" rx="2" fill="#3b82f6"/>
<rect x="478" y="138" width="13" height="18" rx="2" fill="#3b82f6"/>
<rect x="493" y="138" width="13" height="18" rx="2" fill="#3b82f6"/>
<rect x="508" y="138" width="13" height="18" rx="2" fill="#3b82f6"/>
<rect x="523" y="138" width="13" height="18" rx="2" fill="#3b82f6"/>
<rect x="538" y="138" width="13" height="18" rx="2" fill="#3b82f6"/>
<rect x="553" y="138" width="13" height="18" rx="2" fill="#3b82f6"/>
<rect x="568" y="138" width="13" height="18" rx="2" fill="#3b82f6"/>
<rect x="583" y="138" width="13" height="18" rx="2" fill="#3b82f6"/>
<rect x="598" y="138" width="13" height="18" rx="2" fill="#3b82f6"/>
<rect x="613" y="138" width="13" height="18" rx="2" fill="#3b82f6"/>
<rect x="628" y="138" width="13" height="18" rx="2" fill="#3b82f6"/>
<rect x="643" y="138" width="13" height="18" rx="2" fill="#3b82f6"/>
<rect x="658" y="138" width="13" height="18" rx="2" fill="#3b82f6"/>
<rect x="673" y="138" width="13" height="18" rx="2" fill="#3b82f6"/>
<rect x="688" y="138" width="13" height="18" rx="2" fill="#3b82f6"/>
<rect x="703" y="138" width="13" height="18" rx="2" fill="#3b82f6"/>
<rect x="718" y="138" width="13" height="18" rx="2" fill="#3b82f6"/>
<rect x="733" y="138" width="13" height="18" rx="2" fill="#3b82f6"/>
<rect x="748" y="138" width="13" height="18" rx="2" fill="#3b82f6"/>
<rect x="763" y="138" width="13" height="18" rx="2" fill="#3b82f6"/>
<rect x="778" y="138" width="13" height="18" rx="2" fill="#3b82f6"/>
<rect x="793" y="138" width="13" height="18" rx="2" fill="#3b82f6"/>
<rect x="808" y="138" width="13" height="18" rx="2" fill="#3b82f6"/>
<rect x="823" y="138" width="13" height="18" rx="2" fill="#3b82f6"/>
<rect x="838" y="138" width="13" height="18" rx="2" fill="#3b82f6"/>
<rect x="853" y="138" width="13" height="18" rx="2" fill="#3b82f6"/>
<rect x="868" y="138" width="13" height="18" rx="2" fill="#3b82f6"/>
<rect x="883" y="138" width="13" height="18" rx="2" fill="#3b82f6"/>
<rect x="898" y="138" width="13" height="18" rx="2" fill="#3b82f6"/>
<rect x="913" y="138" width="13" height="18" rx="2" fill="#3b82f6"/>
<rect x="928" y="138" width="13" height="18" rx="2" fill="#3b82f6"/>
<rect x="943" y="138" width="13" height="18" rx="2" fill="#3b82f6"/>
<rect x="958" y="138" width="13" height="18" rx="2" fill="#3b82f6"/>
<rect x="973" y="138" width="13" height="18" rx="2" fill="#3b82f6"/>
<rect x="988" y="138" width="13" height="18" rx="2" fill="#3b82f6"/>
<rect x="1003" y="138" width="13" height="18" rx="2" fill="#3b82f6"/>
<rect x="1018" y="138" width="13" height="18" rx="2" fill="#3b82f6"/>
<rect x="1033" y="138" width="13" height="18" rx="2" fill="#3b82f6"/>
<rect x="1048" y="138" width="13" height="18" rx="2" fill="#3b82f6"/>
<rect x="1063" y="138" width="13" height="18" rx="2" fill="#3b82f6"/>
<rect x="1092" y="58" width="21" height="98" rx="3" fill="#3b82f6"/>
<text x="1102" y="50" fill="#94a3b8" font-size="10" text-anchor="middle">head</text>
<text x="124.5" y="172" fill="#94a3b8" font-size="10" text-anchor="middle">L0</text>
<text x="364.5" y="172" fill="#94a3b8" font-size="10" text-anchor="middle">L16</text>
<text x="604.5" y="172" fill="#94a3b8" font-size="10" text-anchor="middle">L32</text>
<text x="844.5" y="172" fill="#94a3b8" font-size="10" text-anchor="middle">L48</text>
<text x="1069.5" y="172" fill="#94a3b8" font-size="10" text-anchor="middle">L63</text>
<rect x="20" y="190" width="12" height="12" rx="2" fill="#3b82f6"/>
<text x="38" y="200" fill="#e5e7eb" font-size="11">NVFP4 · shipped encoder</text>
<rect x="198.6" y="190" width="12" height="12" rx="2" fill="#a855f7"/>
<text x="216.6" y="200" fill="#e5e7eb" font-size="11">NVFP4 · calibrated encoder</text>
<rect x="395.8" y="190" width="12" height="12" rx="2" fill="#60a5fa"/>
<text x="413.8" y="200" fill="#e5e7eb" font-size="11">NVFP4 · round-to-nearest</text>
<rect x="580.6" y="190" width="12" height="12" rx="2" fill="#f59e0b"/>
<text x="598.6" y="200" fill="#e5e7eb" font-size="11">FP8</text>
<rect x="635.2" y="190" width="12" height="12" rx="2" fill="#14b8a6"/>
<text x="653.2" y="200" fill="#e5e7eb" font-size="11">Q4_K (fitted at load)</text>
</svg>
