<svg xmlns="http://www.w3.org/2000/svg" width="1200" height="506" viewBox="0 0 1200 506" font-family="-apple-system,BlinkMacSystemFont,'Segoe UI',Helvetica,Arial,sans-serif">
<style>
.bg{fill:#ffffff;stroke:#d0d7de}.card{fill:#f6f8fa;stroke:#d0d7de}.accent{fill:#f3efff;stroke:#8b5cf6}
.t{fill:#1f2328}.m{fill:#59636e}.rule{stroke:#d0d7de}.track{fill:#e6e9ed}.gpu{stroke:#1f2328}
@media (prefers-color-scheme: dark){
.bg{fill:#0d1117;stroke:#30363d}.card{fill:#161b22;stroke:#30363d}.accent{fill:#1d1633;stroke:#8b5cf6}
.t{fill:#e6edf3}.m{fill:#9198a1}.rule{stroke:#30363d}.track{fill:#21262d}.gpu{stroke:#e6edf3}}
</style>
<rect class="bg" x="0.5" y="0.5" width="1199" height="505" rx="12"/>
<text x="40.0" y="42.0" class="t" font-size="20" font-weight="700" text-anchor="start">Same model, different recipes</text>
<text x="40.0" y="66.0" class="m" font-size="13" font-weight="400" text-anchor="start">One column is one of the 64 layers. Top row: the layer's attention or recurrent block. Bottom row: its MLP.</text>
<text x="335.5" y="92.0" class="m" font-size="11" font-weight="400" text-anchor="middle">layer 0</text>
<text x="543.5" y="92.0" class="m" font-size="11" font-weight="400" text-anchor="middle">layer 16</text>
<text x="751.5" y="92.0" class="m" font-size="11" font-weight="400" text-anchor="middle">layer 32</text>
<text x="959.5" y="92.0" class="m" font-size="11" font-weight="400" text-anchor="middle">layer 48</text>
<text x="1154.5" y="92.0" class="m" font-size="11" font-weight="400" text-anchor="middle">layer 63</text>
<text x="40.0" y="120.0" class="t" font-size="15" font-weight="600" text-anchor="start">V0 · today's checkpoint</text>
<text x="40.0" y="141.0" class="m" font-size="13" font-weight="400" text-anchor="start">the standard NVFP4 encoder everywhere</text>
<text x="40.0" y="166.0" fill="#8c959f" font-size="13" font-weight="600" text-anchor="start">the baseline for every comparison</text>
<rect x="330" y="108" width="11" height="18" rx="2" fill="#5b8def"/>
<rect x="343" y="108" width="11" height="18" rx="2" fill="#5b8def"/>
<rect x="356" y="108" width="11" height="18" rx="2" fill="#5b8def"/>
<rect x="370" y="109" width="9" height="16" rx="2" fill="none" stroke="#5b8def" stroke-width="2"/>
<rect x="382" y="108" width="11" height="18" rx="2" fill="#5b8def"/>
<rect x="395" y="108" width="11" height="18" rx="2" fill="#5b8def"/>
<rect x="408" y="108" width="11" height="18" rx="2" fill="#5b8def"/>
<rect x="422" y="109" width="9" height="16" rx="2" fill="none" stroke="#5b8def" stroke-width="2"/>
<rect x="434" y="108" width="11" height="18" rx="2" fill="#5b8def"/>
<rect x="447" y="108" width="11" height="18" rx="2" fill="#5b8def"/>
<rect x="460" y="108" width="11" height="18" rx="2" fill="#5b8def"/>
<rect x="474" y="109" width="9" height="16" rx="2" fill="none" stroke="#5b8def" stroke-width="2"/>
<rect x="486" y="108" width="11" height="18" rx="2" fill="#5b8def"/>
<rect x="499" y="108" width="11" height="18" rx="2" fill="#5b8def"/>
<rect x="512" y="108" width="11" height="18" rx="2" fill="#5b8def"/>
<rect x="526" y="109" width="9" height="16" rx="2" fill="none" stroke="#5b8def" stroke-width="2"/>
<rect x="538" y="108" width="11" height="18" rx="2" fill="#5b8def"/>
<rect x="551" y="108" width="11" height="18" rx="2" fill="#5b8def"/>
<rect x="564" y="108" width="11" height="18" rx="2" fill="#5b8def"/>
<rect x="578" y="109" width="9" height="16" rx="2" fill="none" stroke="#5b8def" stroke-width="2"/>
<rect x="590" y="108" width="11" height="18" rx="2" fill="#5b8def"/>
<rect x="603" y="108" width="11" height="18" rx="2" fill="#5b8def"/>
<rect x="616" y="108" width="11" height="18" rx="2" fill="#5b8def"/>
<rect x="630" y="109" width="9" height="16" rx="2" fill="none" stroke="#5b8def" stroke-width="2"/>
<rect x="642" y="108" width="11" height="18" rx="2" fill="#5b8def"/>
<rect x="655" y="108" width="11" height="18" rx="2" fill="#5b8def"/>
<rect x="668" y="108" width="11" height="18" rx="2" fill="#5b8def"/>
<rect x="682" y="109" width="9" height="16" rx="2" fill="none" stroke="#5b8def" stroke-width="2"/>
<rect x="694" y="108" width="11" height="18" rx="2" fill="#5b8def"/>
<rect x="707" y="108" width="11" height="18" rx="2" fill="#5b8def"/>
<rect x="720" y="108" width="11" height="18" rx="2" fill="#5b8def"/>
<rect x="734" y="109" width="9" height="16" rx="2" fill="none" stroke="#5b8def" stroke-width="2"/>
<rect x="746" y="108" width="11" height="18" rx="2" fill="#5b8def"/>
<rect x="759" y="108" width="11" height="18" rx="2" fill="#5b8def"/>
<rect x="772" y="108" width="11" height="18" rx="2" fill="#5b8def"/>
<rect x="786" y="109" width="9" height="16" rx="2" fill="none" stroke="#5b8def" stroke-width="2"/>
<rect x="798" y="108" width="11" height="18" rx="2" fill="#5b8def"/>
<rect x="811" y="108" width="11" height="18" rx="2" fill="#5b8def"/>
<rect x="824" y="108" width="11" height="18" rx="2" fill="#5b8def"/>
<rect x="838" y="109" width="9" height="16" rx="2" fill="none" stroke="#5b8def" stroke-width="2"/>
<rect x="850" y="108" width="11" height="18" rx="2" fill="#5b8def"/>
<rect x="863" y="108" width="11" height="18" rx="2" fill="#5b8def"/>
<rect x="876" y="108" width="11" height="18" rx="2" fill="#5b8def"/>
<rect x="890" y="109" width="9" height="16" rx="2" fill="none" stroke="#5b8def" stroke-width="2"/>
<rect x="902" y="108" width="11" height="18" rx="2" fill="#5b8def"/>
<rect x="915" y="108" width="11" height="18" rx="2" fill="#5b8def"/>
<rect x="928" y="108" width="11" height="18" rx="2" fill="#5b8def"/>
<rect x="942" y="109" width="9" height="16" rx="2" fill="none" stroke="#5b8def" stroke-width="2"/>
<rect x="954" y="108" width="11" height="18" rx="2" fill="#5b8def"/>
<rect x="967" y="108" width="11" height="18" rx="2" fill="#5b8def"/>
<rect x="980" y="108" width="11" height="18" rx="2" fill="#5b8def"/>
<rect x="994" y="109" width="9" height="16" rx="2" fill="none" stroke="#5b8def" stroke-width="2"/>
<rect x="1006" y="108" width="11" height="18" rx="2" fill="#5b8def"/>
<rect x="1019" y="108" width="11" height="18" rx="2" fill="#5b8def"/>
<rect x="1032" y="108" width="11" height="18" rx="2" fill="#5b8def"/>
<rect x="1046" y="109" width="9" height="16" rx="2" fill="none" stroke="#5b8def" stroke-width="2"/>
<rect x="1058" y="108" width="11" height="18" rx="2" fill="#5b8def"/>
<rect x="1071" y="108" width="11" height="18" rx="2" fill="#5b8def"/>
<rect x="1084" y="108" width="11" height="18" rx="2" fill="#5b8def"/>
<rect x="1098" y="109" width="9" height="16" rx="2" fill="none" stroke="#5b8def" stroke-width="2"/>
<rect x="1110" y="108" width="11" height="18" rx="2" fill="#5b8def"/>
<rect x="1123" y="108" width="11" height="18" rx="2" fill="#5b8def"/>
<rect x="1136" y="108" width="11" height="18" rx="2" fill="#5b8def"/>
<rect x="1150" y="109" width="9" height="16" rx="2" fill="none" stroke="#5b8def" stroke-width="2"/>
<rect x="330" y="132" width="11" height="18" rx="2" fill="#5b8def"/>
<rect x="343" y="132" width="11" height="18" rx="2" fill="#5b8def"/>
<rect x="356" y="132" width="11" height="18" rx="2" fill="#5b8def"/>
<rect x="369" y="132" width="11" height="18" rx="2" fill="#5b8def"/>
<rect x="382" y="132" width="11" height="18" rx="2" fill="#5b8def"/>
<rect x="395" y="132" width="11" height="18" rx="2" fill="#5b8def"/>
<rect x="408" y="132" width="11" height="18" rx="2" fill="#5b8def"/>
<rect x="421" y="132" width="11" height="18" rx="2" fill="#5b8def"/>
<rect x="434" y="132" width="11" height="18" rx="2" fill="#5b8def"/>
<rect x="447" y="132" width="11" height="18" rx="2" fill="#5b8def"/>
<rect x="460" y="132" width="11" height="18" rx="2" fill="#5b8def"/>
<rect x="473" y="132" width="11" height="18" rx="2" fill="#5b8def"/>
<rect x="486" y="132" width="11" height="18" rx="2" fill="#5b8def"/>
<rect x="499" y="132" width="11" height="18" rx="2" fill="#5b8def"/>
<rect x="512" y="132" width="11" height="18" rx="2" fill="#5b8def"/>
<rect x="525" y="132" width="11" height="18" rx="2" fill="#5b8def"/>
<rect x="538" y="132" width="11" height="18" rx="2" fill="#5b8def"/>
<rect x="551" y="132" width="11" height="18" rx="2" fill="#5b8def"/>
<rect x="564" y="132" width="11" height="18" rx="2" fill="#5b8def"/>
<rect x="577" y="132" width="11" height="18" rx="2" fill="#5b8def"/>
<rect x="590" y="132" width="11" height="18" rx="2" fill="#5b8def"/>
<rect x="603" y="132" width="11" height="18" rx="2" fill="#5b8def"/>
<rect x="616" y="132" width="11" height="18" rx="2" fill="#5b8def"/>
<rect x="629" y="132" width="11" height="18" rx="2" fill="#5b8def"/>
<rect x="642" y="132" width="11" height="18" rx="2" fill="#5b8def"/>
<rect x="655" y="132" width="11" height="18" rx="2" fill="#5b8def"/>
<rect x="668" y="132" width="11" height="18" rx="2" fill="#5b8def"/>
<rect x="681" y="132" width="11" height="18" rx="2" fill="#5b8def"/>
<rect x="694" y="132" width="11" height="18" rx="2" fill="#5b8def"/>
<rect x="707" y="132" width="11" height="18" rx="2" fill="#5b8def"/>
<rect x="720" y="132" width="11" height="18" rx="2" fill="#5b8def"/>
<rect x="733" y="132" width="11" height="18" rx="2" fill="#5b8def"/>
<rect x="746" y="132" width="11" height="18" rx="2" fill="#5b8def"/>
<rect x="759" y="132" width="11" height="18" rx="2" fill="#5b8def"/>
<rect x="772" y="132" width="11" height="18" rx="2" fill="#5b8def"/>
<rect x="785" y="132" width="11" height="18" rx="2" fill="#5b8def"/>
<rect x="798" y="132" width="11" height="18" rx="2" fill="#5b8def"/>
<rect x="811" y="132" width="11" height="18" rx="2" fill="#5b8def"/>
<rect x="824" y="132" width="11" height="18" rx="2" fill="#5b8def"/>
<rect x="837" y="132" width="11" height="18" rx="2" fill="#5b8def"/>
<rect x="850" y="132" width="11" height="18" rx="2" fill="#5b8def"/>
<rect x="863" y="132" width="11" height="18" rx="2" fill="#5b8def"/>
<rect x="876" y="132" width="11" height="18" rx="2" fill="#5b8def"/>
<rect x="889" y="132" width="11" height="18" rx="2" fill="#5b8def"/>
<rect x="902" y="132" width="11" height="18" rx="2" fill="#5b8def"/>
<rect x="915" y="132" width="11" height="18" rx="2" fill="#5b8def"/>
<rect x="928" y="132" width="11" height="18" rx="2" fill="#5b8def"/>
<rect x="941" y="132" width="11" height="18" rx="2" fill="#5b8def"/>
<rect x="954" y="132" width="11" height="18" rx="2" fill="#5b8def"/>
<rect x="967" y="132" width="11" height="18" rx="2" fill="#5b8def"/>
<rect x="980" y="132" width="11" height="18" rx="2" fill="#5b8def"/>
<rect x="993" y="132" width="11" height="18" rx="2" fill="#5b8def"/>
<rect x="1006" y="132" width="11" height="18" rx="2" fill="#5b8def"/>
<rect x="1019" y="132" width="11" height="18" rx="2" fill="#5b8def"/>
<rect x="1032" y="132" width="11" height="18" rx="2" fill="#5b8def"/>
<rect x="1045" y="132" width="11" height="18" rx="2" fill="#5b8def"/>
<rect x="1058" y="132" width="11" height="18" rx="2" fill="#5b8def"/>
<rect x="1071" y="132" width="11" height="18" rx="2" fill="#5b8def"/>
<rect x="1084" y="132" width="11" height="18" rx="2" fill="#5b8def"/>
<rect x="1097" y="132" width="11" height="18" rx="2" fill="#5b8def"/>
<rect x="1110" y="132" width="11" height="18" rx="2" fill="#5b8def"/>
<rect x="1123" y="132" width="11" height="18" rx="2" fill="#5b8def"/>
<rect x="1136" y="132" width="11" height="18" rx="2" fill="#5b8def"/>
<rect x="1149" y="132" width="11" height="18" rx="2" fill="#5b8def"/>
<line class="rule" x1="40" y1="216" x2="1160" y2="216"/>
<text x="40.0" y="244.0" class="t" font-size="15" font-weight="600" text-anchor="start">V13 · better encoder for the MLP</text>
<text x="40.0" y="265.0" class="m" font-size="13" font-weight="400" text-anchor="start">calibrated bytes, MLP layers 0–55</text>
<text x="40.0" y="290.0" fill="#1a7f37" font-size="13" font-weight="600" text-anchor="start">11% closer to the original</text>
<text x="40.0" y="309.0" fill="#cf222e" font-size="13" font-weight="600" text-anchor="start">4% slower prompt reading</text>
<rect x="330" y="232" width="11" height="18" rx="2" fill="#5b8def"/>
<rect x="343" y="232" width="11" height="18" rx="2" fill="#5b8def"/>
<rect x="356" y="232" width="11" height="18" rx="2" fill="#5b8def"/>
<rect x="370" y="233" width="9" height="16" rx="2" fill="none" stroke="#5b8def" stroke-width="2"/>
<rect x="382" y="232" width="11" height="18" rx="2" fill="#5b8def"/>
<rect x="395" y="232" width="11" height="18" rx="2" fill="#5b8def"/>
<rect x="408" y="232" width="11" height="18" rx="2" fill="#5b8def"/>
<rect x="422" y="233" width="9" height="16" rx="2" fill="none" stroke="#5b8def" stroke-width="2"/>
<rect x="434" y="232" width="11" height="18" rx="2" fill="#5b8def"/>
<rect x="447" y="232" width="11" height="18" rx="2" fill="#5b8def"/>
<rect x="460" y="232" width="11" height="18" rx="2" fill="#5b8def"/>
<rect x="474" y="233" width="9" height="16" rx="2" fill="none" stroke="#5b8def" stroke-width="2"/>
<rect x="486" y="232" width="11" height="18" rx="2" fill="#5b8def"/>
<rect x="499" y="232" width="11" height="18" rx="2" fill="#5b8def"/>
<rect x="512" y="232" width="11" height="18" rx="2" fill="#5b8def"/>
<rect x="526" y="233" width="9" height="16" rx="2" fill="none" stroke="#5b8def" stroke-width="2"/>
<rect x="538" y="232" width="11" height="18" rx="2" fill="#5b8def"/>
<rect x="551" y="232" width="11" height="18" rx="2" fill="#5b8def"/>
<rect x="564" y="232" width="11" height="18" rx="2" fill="#5b8def"/>
<rect x="578" y="233" width="9" height="16" rx="2" fill="none" stroke="#5b8def" stroke-width="2"/>
<rect x="590" y="232" width="11" height="18" rx="2" fill="#5b8def"/>
<rect x="603" y="232" width="11" height="18" rx="2" fill="#5b8def"/>
<rect x="616" y="232" width="11" height="18" rx="2" fill="#5b8def"/>
<rect x="630" y="233" width="9" height="16" rx="2" fill="none" stroke="#5b8def" stroke-width="2"/>
<rect x="642" y="232" width="11" height="18" rx="2" fill="#5b8def"/>
<rect x="655" y="232" width="11" height="18" rx="2" fill="#5b8def"/>
<rect x="668" y="232" width="11" height="18" rx="2" fill="#5b8def"/>
<rect x="682" y="233" width="9" height="16" rx="2" fill="none" stroke="#5b8def" stroke-width="2"/>
<rect x="694" y="232" width="11" height="18" rx="2" fill="#5b8def"/>
<rect x="707" y="232" width="11" height="18" rx="2" fill="#5b8def"/>
<rect x="720" y="232" width="11" height="18" rx="2" fill="#5b8def"/>
<rect x="734" y="233" width="9" height="16" rx="2" fill="none" stroke="#5b8def" stroke-width="2"/>
<rect x="746" y="232" width="11" height="18" rx="2" fill="#5b8def"/>
<rect x="759" y="232" width="11" height="18" rx="2" fill="#5b8def"/>
<rect x="772" y="232" width="11" height="18" rx="2" fill="#5b8def"/>
<rect x="786" y="233" width="9" height="16" rx="2" fill="none" stroke="#5b8def" stroke-width="2"/>
<rect x="798" y="232" width="11" height="18" rx="2" fill="#5b8def"/>
<rect x="811" y="232" width="11" height="18" rx="2" fill="#5b8def"/>
<rect x="824" y="232" width="11" height="18" rx="2" fill="#5b8def"/>
<rect x="838" y="233" width="9" height="16" rx="2" fill="none" stroke="#5b8def" stroke-width="2"/>
<rect x="850" y="232" width="11" height="18" rx="2" fill="#5b8def"/>
<rect x="863" y="232" width="11" height="18" rx="2" fill="#5b8def"/>
<rect x="876" y="232" width="11" height="18" rx="2" fill="#5b8def"/>
<rect x="890" y="233" width="9" height="16" rx="2" fill="none" stroke="#5b8def" stroke-width="2"/>
<rect x="902" y="232" width="11" height="18" rx="2" fill="#5b8def"/>
<rect x="915" y="232" width="11" height="18" rx="2" fill="#5b8def"/>
<rect x="928" y="232" width="11" height="18" rx="2" fill="#5b8def"/>
<rect x="942" y="233" width="9" height="16" rx="2" fill="none" stroke="#5b8def" stroke-width="2"/>
<rect x="954" y="232" width="11" height="18" rx="2" fill="#5b8def"/>
<rect x="967" y="232" width="11" height="18" rx="2" fill="#5b8def"/>
<rect x="980" y="232" width="11" height="18" rx="2" fill="#5b8def"/>
<rect x="994" y="233" width="9" height="16" rx="2" fill="none" stroke="#5b8def" stroke-width="2"/>
<rect x="1006" y="232" width="11" height="18" rx="2" fill="#5b8def"/>
<rect x="1019" y="232" width="11" height="18" rx="2" fill="#5b8def"/>
<rect x="1032" y="232" width="11" height="18" rx="2" fill="#5b8def"/>
<rect x="1046" y="233" width="9" height="16" rx="2" fill="none" stroke="#5b8def" stroke-width="2"/>
<rect x="1058" y="232" width="11" height="18" rx="2" fill="#5b8def"/>
<rect x="1071" y="232" width="11" height="18" rx="2" fill="#5b8def"/>
<rect x="1084" y="232" width="11" height="18" rx="2" fill="#5b8def"/>
<rect x="1098" y="233" width="9" height="16" rx="2" fill="none" stroke="#5b8def" stroke-width="2"/>
<rect x="1110" y="232" width="11" height="18" rx="2" fill="#5b8def"/>
<rect x="1123" y="232" width="11" height="18" rx="2" fill="#5b8def"/>
<rect x="1136" y="232" width="11" height="18" rx="2" fill="#5b8def"/>
<rect x="1150" y="233" width="9" height="16" rx="2" fill="none" stroke="#5b8def" stroke-width="2"/>
<rect x="330" y="256" width="11" height="18" rx="2" fill="#8b5cf6"/>
<rect x="343" y="256" width="11" height="18" rx="2" fill="#8b5cf6"/>
<rect x="356" y="256" width="11" height="18" rx="2" fill="#8b5cf6"/>
<rect x="369" y="256" width="11" height="18" rx="2" fill="#8b5cf6"/>
<rect x="382" y="256" width="11" height="18" rx="2" fill="#8b5cf6"/>
<rect x="395" y="256" width="11" height="18" rx="2" fill="#8b5cf6"/>
<rect x="408" y="256" width="11" height="18" rx="2" fill="#8b5cf6"/>
<rect x="421" y="256" width="11" height="18" rx="2" fill="#8b5cf6"/>
<rect x="434" y="256" width="11" height="18" rx="2" fill="#8b5cf6"/>
<rect x="447" y="256" width="11" height="18" rx="2" fill="#8b5cf6"/>
<rect x="460" y="256" width="11" height="18" rx="2" fill="#8b5cf6"/>
<rect x="473" y="256" width="11" height="18" rx="2" fill="#8b5cf6"/>
<rect x="486" y="256" width="11" height="18" rx="2" fill="#8b5cf6"/>
<rect x="499" y="256" width="11" height="18" rx="2" fill="#8b5cf6"/>
<rect x="512" y="256" width="11" height="18" rx="2" fill="#8b5cf6"/>
<rect x="525" y="256" width="11" height="18" rx="2" fill="#8b5cf6"/>
<rect x="538" y="256" width="11" height="18" rx="2" fill="#8b5cf6"/>
<rect x="551" y="256" width="11" height="18" rx="2" fill="#8b5cf6"/>
<rect x="564" y="256" width="11" height="18" rx="2" fill="#8b5cf6"/>
<rect x="577" y="256" width="11" height="18" rx="2" fill="#8b5cf6"/>
<rect x="590" y="256" width="11" height="18" rx="2" fill="#8b5cf6"/>
<rect x="603" y="256" width="11" height="18" rx="2" fill="#8b5cf6"/>
<rect x="616" y="256" width="11" height="18" rx="2" fill="#8b5cf6"/>
<rect x="629" y="256" width="11" height="18" rx="2" fill="#8b5cf6"/>
<rect x="642" y="256" width="11" height="18" rx="2" fill="#8b5cf6"/>
<rect x="655" y="256" width="11" height="18" rx="2" fill="#8b5cf6"/>
<rect x="668" y="256" width="11" height="18" rx="2" fill="#8b5cf6"/>
<rect x="681" y="256" width="11" height="18" rx="2" fill="#8b5cf6"/>
<rect x="694" y="256" width="11" height="18" rx="2" fill="#8b5cf6"/>
<rect x="707" y="256" width="11" height="18" rx="2" fill="#8b5cf6"/>
<rect x="720" y="256" width="11" height="18" rx="2" fill="#8b5cf6"/>
<rect x="733" y="256" width="11" height="18" rx="2" fill="#8b5cf6"/>
<rect x="746" y="256" width="11" height="18" rx="2" fill="#8b5cf6"/>
<rect x="759" y="256" width="11" height="18" rx="2" fill="#8b5cf6"/>
<rect x="772" y="256" width="11" height="18" rx="2" fill="#8b5cf6"/>
<rect x="785" y="256" width="11" height="18" rx="2" fill="#8b5cf6"/>
<rect x="798" y="256" width="11" height="18" rx="2" fill="#8b5cf6"/>
<rect x="811" y="256" width="11" height="18" rx="2" fill="#8b5cf6"/>
<rect x="824" y="256" width="11" height="18" rx="2" fill="#8b5cf6"/>
<rect x="837" y="256" width="11" height="18" rx="2" fill="#8b5cf6"/>
<rect x="850" y="256" width="11" height="18" rx="2" fill="#8b5cf6"/>
<rect x="863" y="256" width="11" height="18" rx="2" fill="#8b5cf6"/>
<rect x="876" y="256" width="11" height="18" rx="2" fill="#8b5cf6"/>
<rect x="889" y="256" width="11" height="18" rx="2" fill="#8b5cf6"/>
<rect x="902" y="256" width="11" height="18" rx="2" fill="#8b5cf6"/>
<rect x="915" y="256" width="11" height="18" rx="2" fill="#8b5cf6"/>
<rect x="928" y="256" width="11" height="18" rx="2" fill="#8b5cf6"/>
<rect x="941" y="256" width="11" height="18" rx="2" fill="#8b5cf6"/>
<rect x="954" y="256" width="11" height="18" rx="2" fill="#8b5cf6"/>
<rect x="967" y="256" width="11" height="18" rx="2" fill="#8b5cf6"/>
<rect x="980" y="256" width="11" height="18" rx="2" fill="#8b5cf6"/>
<rect x="993" y="256" width="11" height="18" rx="2" fill="#8b5cf6"/>
<rect x="1006" y="256" width="11" height="18" rx="2" fill="#8b5cf6"/>
<rect x="1019" y="256" width="11" height="18" rx="2" fill="#8b5cf6"/>
<rect x="1032" y="256" width="11" height="18" rx="2" fill="#8b5cf6"/>
<rect x="1045" y="256" width="11" height="18" rx="2" fill="#8b5cf6"/>
<rect x="1058" y="256" width="11" height="18" rx="2" fill="#5b8def"/>
<rect x="1071" y="256" width="11" height="18" rx="2" fill="#5b8def"/>
<rect x="1084" y="256" width="11" height="18" rx="2" fill="#5b8def"/>
<rect x="1097" y="256" width="11" height="18" rx="2" fill="#5b8def"/>
<rect x="1110" y="256" width="11" height="18" rx="2" fill="#5b8def"/>
<rect x="1123" y="256" width="11" height="18" rx="2" fill="#5b8def"/>
<rect x="1136" y="256" width="11" height="18" rx="2" fill="#5b8def"/>
<rect x="1149" y="256" width="11" height="18" rx="2" fill="#5b8def"/>
<line class="rule" x1="40" y1="340" x2="1160" y2="340"/>
<text x="40.0" y="368.0" class="t" font-size="15" font-weight="600" text-anchor="start">V3 · more bits for recurrent layers</text>
<text x="40.0" y="389.0" class="m" font-size="13" font-weight="400" text-anchor="start">FP8 on every recurrent block</text>
<text x="40.0" y="414.0" fill="#1a7f37" font-size="13" font-weight="600" text-anchor="start">17% closer to the original</text>
<text x="40.0" y="433.0" fill="#cf222e" font-size="13" font-weight="600" text-anchor="start">13% slower generation</text>
<text x="40.0" y="452.0" fill="#cf222e" font-size="13" font-weight="600" text-anchor="start">20% slower prompt reading</text>
<rect x="330" y="356" width="11" height="18" rx="2" fill="#e3a008"/>
<rect x="343" y="356" width="11" height="18" rx="2" fill="#e3a008"/>
<rect x="356" y="356" width="11" height="18" rx="2" fill="#e3a008"/>
<rect x="370" y="357" width="9" height="16" rx="2" fill="none" stroke="#5b8def" stroke-width="2"/>
<rect x="382" y="356" width="11" height="18" rx="2" fill="#e3a008"/>
<rect x="395" y="356" width="11" height="18" rx="2" fill="#e3a008"/>
<rect x="408" y="356" width="11" height="18" rx="2" fill="#e3a008"/>
<rect x="422" y="357" width="9" height="16" rx="2" fill="none" stroke="#5b8def" stroke-width="2"/>
<rect x="434" y="356" width="11" height="18" rx="2" fill="#e3a008"/>
<rect x="447" y="356" width="11" height="18" rx="2" fill="#e3a008"/>
<rect x="460" y="356" width="11" height="18" rx="2" fill="#e3a008"/>
<rect x="474" y="357" width="9" height="16" rx="2" fill="none" stroke="#5b8def" stroke-width="2"/>
<rect x="486" y="356" width="11" height="18" rx="2" fill="#e3a008"/>
<rect x="499" y="356" width="11" height="18" rx="2" fill="#e3a008"/>
<rect x="512" y="356" width="11" height="18" rx="2" fill="#e3a008"/>
<rect x="526" y="357" width="9" height="16" rx="2" fill="none" stroke="#5b8def" stroke-width="2"/>
<rect x="538" y="356" width="11" height="18" rx="2" fill="#e3a008"/>
<rect x="551" y="356" width="11" height="18" rx="2" fill="#e3a008"/>
<rect x="564" y="356" width="11" height="18" rx="2" fill="#e3a008"/>
<rect x="578" y="357" width="9" height="16" rx="2" fill="none" stroke="#5b8def" stroke-width="2"/>
<rect x="590" y="356" width="11" height="18" rx="2" fill="#e3a008"/>
<rect x="603" y="356" width="11" height="18" rx="2" fill="#e3a008"/>
<rect x="616" y="356" width="11" height="18" rx="2" fill="#e3a008"/>
<rect x="630" y="357" width="9" height="16" rx="2" fill="none" stroke="#5b8def" stroke-width="2"/>
<rect x="642" y="356" width="11" height="18" rx="2" fill="#e3a008"/>
<rect x="655" y="356" width="11" height="18" rx="2" fill="#e3a008"/>
<rect x="668" y="356" width="11" height="18" rx="2" fill="#e3a008"/>
<rect x="682" y="357" width="9" height="16" rx="2" fill="none" stroke="#5b8def" stroke-width="2"/>
<rect x="694" y="356" width="11" height="18" rx="2" fill="#e3a008"/>
<rect x="707" y="356" width="11" height="18" rx="2" fill="#e3a008"/>
<rect x="720" y="356" width="11" height="18" rx="2" fill="#e3a008"/>
<rect x="734" y="357" width="9" height="16" rx="2" fill="none" stroke="#5b8def" stroke-width="2"/>
<rect x="746" y="356" width="11" height="18" rx="2" fill="#e3a008"/>
<rect x="759" y="356" width="11" height="18" rx="2" fill="#e3a008"/>
<rect x="772" y="356" width="11" height="18" rx="2" fill="#e3a008"/>
<rect x="786" y="357" width="9" height="16" rx="2" fill="none" stroke="#5b8def" stroke-width="2"/>
<rect x="798" y="356" width="11" height="18" rx="2" fill="#e3a008"/>
<rect x="811" y="356" width="11" height="18" rx="2" fill="#e3a008"/>
<rect x="824" y="356" width="11" height="18" rx="2" fill="#e3a008"/>
<rect x="838" y="357" width="9" height="16" rx="2" fill="none" stroke="#5b8def" stroke-width="2"/>
<rect x="850" y="356" width="11" height="18" rx="2" fill="#e3a008"/>
<rect x="863" y="356" width="11" height="18" rx="2" fill="#e3a008"/>
<rect x="876" y="356" width="11" height="18" rx="2" fill="#e3a008"/>
<rect x="890" y="357" width="9" height="16" rx="2" fill="none" stroke="#5b8def" stroke-width="2"/>
<rect x="902" y="356" width="11" height="18" rx="2" fill="#e3a008"/>
<rect x="915" y="356" width="11" height="18" rx="2" fill="#e3a008"/>
<rect x="928" y="356" width="11" height="18" rx="2" fill="#e3a008"/>
<rect x="942" y="357" width="9" height="16" rx="2" fill="none" stroke="#5b8def" stroke-width="2"/>
<rect x="954" y="356" width="11" height="18" rx="2" fill="#e3a008"/>
<rect x="967" y="356" width="11" height="18" rx="2" fill="#e3a008"/>
<rect x="980" y="356" width="11" height="18" rx="2" fill="#e3a008"/>
<rect x="994" y="357" width="9" height="16" rx="2" fill="none" stroke="#5b8def" stroke-width="2"/>
<rect x="1006" y="356" width="11" height="18" rx="2" fill="#e3a008"/>
<rect x="1019" y="356" width="11" height="18" rx="2" fill="#e3a008"/>
<rect x="1032" y="356" width="11" height="18" rx="2" fill="#e3a008"/>
<rect x="1046" y="357" width="9" height="16" rx="2" fill="none" stroke="#5b8def" stroke-width="2"/>
<rect x="1058" y="356" width="11" height="18" rx="2" fill="#e3a008"/>
<rect x="1071" y="356" width="11" height="18" rx="2" fill="#e3a008"/>
<rect x="1084" y="356" width="11" height="18" rx="2" fill="#e3a008"/>
<rect x="1098" y="357" width="9" height="16" rx="2" fill="none" stroke="#5b8def" stroke-width="2"/>
<rect x="1110" y="356" width="11" height="18" rx="2" fill="#e3a008"/>
<rect x="1123" y="356" width="11" height="18" rx="2" fill="#e3a008"/>
<rect x="1136" y="356" width="11" height="18" rx="2" fill="#e3a008"/>
<rect x="1150" y="357" width="9" height="16" rx="2" fill="none" stroke="#5b8def" stroke-width="2"/>
<rect x="330" y="380" width="11" height="18" rx="2" fill="#5b8def"/>
<rect x="343" y="380" width="11" height="18" rx="2" fill="#5b8def"/>
<rect x="356" y="380" width="11" height="18" rx="2" fill="#5b8def"/>
<rect x="369" y="380" width="11" height="18" rx="2" fill="#5b8def"/>
<rect x="382" y="380" width="11" height="18" rx="2" fill="#5b8def"/>
<rect x="395" y="380" width="11" height="18" rx="2" fill="#5b8def"/>
<rect x="408" y="380" width="11" height="18" rx="2" fill="#5b8def"/>
<rect x="421" y="380" width="11" height="18" rx="2" fill="#5b8def"/>
<rect x="434" y="380" width="11" height="18" rx="2" fill="#5b8def"/>
<rect x="447" y="380" width="11" height="18" rx="2" fill="#5b8def"/>
<rect x="460" y="380" width="11" height="18" rx="2" fill="#5b8def"/>
<rect x="473" y="380" width="11" height="18" rx="2" fill="#5b8def"/>
<rect x="486" y="380" width="11" height="18" rx="2" fill="#5b8def"/>
<rect x="499" y="380" width="11" height="18" rx="2" fill="#5b8def"/>
<rect x="512" y="380" width="11" height="18" rx="2" fill="#5b8def"/>
<rect x="525" y="380" width="11" height="18" rx="2" fill="#5b8def"/>
<rect x="538" y="380" width="11" height="18" rx="2" fill="#5b8def"/>
<rect x="551" y="380" width="11" height="18" rx="2" fill="#5b8def"/>
<rect x="564" y="380" width="11" height="18" rx="2" fill="#5b8def"/>
<rect x="577" y="380" width="11" height="18" rx="2" fill="#5b8def"/>
<rect x="590" y="380" width="11" height="18" rx="2" fill="#5b8def"/>
<rect x="603" y="380" width="11" height="18" rx="2" fill="#5b8def"/>
<rect x="616" y="380" width="11" height="18" rx="2" fill="#5b8def"/>
<rect x="629" y="380" width="11" height="18" rx="2" fill="#5b8def"/>
<rect x="642" y="380" width="11" height="18" rx="2" fill="#5b8def"/>
<rect x="655" y="380" width="11" height="18" rx="2" fill="#5b8def"/>
<rect x="668" y="380" width="11" height="18" rx="2" fill="#5b8def"/>
<rect x="681" y="380" width="11" height="18" rx="2" fill="#5b8def"/>
<rect x="694" y="380" width="11" height="18" rx="2" fill="#5b8def"/>
<rect x="707" y="380" width="11" height="18" rx="2" fill="#5b8def"/>
<rect x="720" y="380" width="11" height="18" rx="2" fill="#5b8def"/>
<rect x="733" y="380" width="11" height="18" rx="2" fill="#5b8def"/>
<rect x="746" y="380" width="11" height="18" rx="2" fill="#5b8def"/>
<rect x="759" y="380" width="11" height="18" rx="2" fill="#5b8def"/>
<rect x="772" y="380" width="11" height="18" rx="2" fill="#5b8def"/>
<rect x="785" y="380" width="11" height="18" rx="2" fill="#5b8def"/>
<rect x="798" y="380" width="11" height="18" rx="2" fill="#5b8def"/>
<rect x="811" y="380" width="11" height="18" rx="2" fill="#5b8def"/>
<rect x="824" y="380" width="11" height="18" rx="2" fill="#5b8def"/>
<rect x="837" y="380" width="11" height="18" rx="2" fill="#5b8def"/>
<rect x="850" y="380" width="11" height="18" rx="2" fill="#5b8def"/>
<rect x="863" y="380" width="11" height="18" rx="2" fill="#5b8def"/>
<rect x="876" y="380" width="11" height="18" rx="2" fill="#5b8def"/>
<rect x="889" y="380" width="11" height="18" rx="2" fill="#5b8def"/>
<rect x="902" y="380" width="11" height="18" rx="2" fill="#5b8def"/>
<rect x="915" y="380" width="11" height="18" rx="2" fill="#5b8def"/>
<rect x="928" y="380" width="11" height="18" rx="2" fill="#5b8def"/>
<rect x="941" y="380" width="11" height="18" rx="2" fill="#5b8def"/>
<rect x="954" y="380" width="11" height="18" rx="2" fill="#5b8def"/>
<rect x="967" y="380" width="11" height="18" rx="2" fill="#5b8def"/>
<rect x="980" y="380" width="11" height="18" rx="2" fill="#5b8def"/>
<rect x="993" y="380" width="11" height="18" rx="2" fill="#5b8def"/>
<rect x="1006" y="380" width="11" height="18" rx="2" fill="#5b8def"/>
<rect x="1019" y="380" width="11" height="18" rx="2" fill="#5b8def"/>
<rect x="1032" y="380" width="11" height="18" rx="2" fill="#5b8def"/>
<rect x="1045" y="380" width="11" height="18" rx="2" fill="#5b8def"/>
<rect x="1058" y="380" width="11" height="18" rx="2" fill="#5b8def"/>
<rect x="1071" y="380" width="11" height="18" rx="2" fill="#5b8def"/>
<rect x="1084" y="380" width="11" height="18" rx="2" fill="#5b8def"/>
<rect x="1097" y="380" width="11" height="18" rx="2" fill="#5b8def"/>
<rect x="1110" y="380" width="11" height="18" rx="2" fill="#5b8def"/>
<rect x="1123" y="380" width="11" height="18" rx="2" fill="#5b8def"/>
<rect x="1136" y="380" width="11" height="18" rx="2" fill="#5b8def"/>
<rect x="1149" y="380" width="11" height="18" rx="2" fill="#5b8def"/>
<rect x="40" y="471" width="12" height="12" rx="2" fill="#5b8def"/>
<text x="58.0" y="482.0" class="m" font-size="13" font-weight="400" text-anchor="start">NVFP4, standard encoder</text>
<rect x="252.20000000000002" y="471" width="12" height="12" rx="2" fill="#8b5cf6"/>
<text x="270.2" y="482.0" class="m" font-size="13" font-weight="400" text-anchor="start">NVFP4, calibrated encoder</text>
<rect x="479.20000000000005" y="471" width="12" height="12" rx="2" fill="#e3a008"/>
<text x="497.2" y="482.0" class="m" font-size="13" font-weight="400" text-anchor="start">FP8</text>
<rect x="543.4000000000001" y="471" width="12" height="12" rx="2" fill="none" class="gpu" stroke-width="1.5"/>
<text x="561.4" y="482.0" class="m" font-size="13" font-weight="400" text-anchor="start">outlined = attention layer, filled = recurrent layer</text>
</svg>
